<?xml version="1.0" encoding="utf-8"?>
<!-- Generator: Adobe Illustrator 16.0.0, SVG Export Plug-In . SVG Version: 6.00 Build 0)  -->
<!DOCTYPE svg PUBLIC "-//W3C//DTD SVG 1.1//EN" "http://www.w3.org/Graphics/SVG/1.1/DTD/svg11.dtd">
<svg version="1.1" id="Layer_1" xmlns="http://www.w3.org/2000/svg" xmlns:xlink="http://www.w3.org/1999/xlink" x="0px" y="0px"
	 width="50px" height="50px" viewBox="0 0 50 50" enable-background="new 0 0 50 50" xml:space="preserve">
<g>
	<circle fill="#21DBCD" cx="25" cy="-139.999" r="25"/>
</g>
<g>
	<path fill="#FFFFFF" d="M25-130.365c-0.719,0-1.302-0.583-1.302-1.302v-16.666c0-0.719,0.583-1.302,1.302-1.302
		c0.719,0,1.302,0.583,1.302,1.302v16.666C26.302-130.948,25.719-130.365,25-130.365z"/>
</g>
<g>
	<circle fill="#21DBCD" cx="25" cy="-84.999" r="25"/>
</g>
<g>
	<path fill="#FFFFFF" d="M15.364-85c0-0.719,0.583-1.302,1.303-1.302h16.666c0.719,0,1.302,0.583,1.302,1.302
		s-0.583,1.302-1.302,1.302H16.667C15.947-83.698,15.364-84.281,15.364-85z"/>
</g>
<g>
	<circle fill="#1CB7AB" cx="25" cy="-29.999" r="25"/>
</g>
<g>
	<path fill="#FFFFFF" d="M15.364-30c0-0.719,0.583-1.302,1.303-1.302h16.666c0.719,0,1.302,0.583,1.302,1.302
		s-0.583,1.302-1.302,1.302H16.667C15.947-28.698,15.364-29.281,15.364-30z"/>
</g>
<g>
	<path fill="#FFFFFF" d="M25.44-37.894c0.508-0.508,1.332-0.508,1.841,0.001l6.973,6.973c0.508,0.508,0.508,1.332,0,1.84
		c-0.508,0.509-1.332,0.509-1.841,0l-6.973-6.972C24.932-36.562,24.932-37.386,25.44-37.894z"/>
</g>
<g>
	<path fill="#FFFFFF" d="M25.44-22.107c-0.507-0.508-0.507-1.332,0.001-1.842l6.973-6.972c0.508-0.508,1.332-0.508,1.84,0
		c0.509,0.508,0.509,1.332,0,1.841l-6.973,6.973C26.771-21.599,25.948-21.599,25.44-22.107z"/>
</g>
<g>
	<circle fill="#21DBCD" cx="25" cy="25.001" r="25"/>
</g>
<g>
	<path fill="#FFFFFF" d="M25,34.635c-0.719,0-1.302-0.582-1.302-1.302V16.667c0-0.72,0.583-1.302,1.302-1.302
		c0.719,0,1.302,0.582,1.302,1.302v16.666C26.302,34.053,25.719,34.635,25,34.635z"/>
</g>
<g>
	<path fill="#FFFFFF" d="M25.44-92.894c0.508-0.508,1.332-0.508,1.841,0.001l6.973,6.973c0.508,0.508,0.508,1.332,0,1.84
		c-0.508,0.509-1.332,0.509-1.841,0l-6.973-6.972C24.932-91.562,24.932-92.386,25.44-92.894z"/>
</g>
<g>
	<path fill="#FFFFFF" d="M25.44-77.107c-0.507-0.508-0.507-1.332,0.001-1.842l6.973-6.972c0.508-0.508,1.332-0.508,1.84,0
		c0.509,0.508,0.509,1.332,0,1.841l-6.973,6.973C26.771-76.599,25.948-76.599,25.44-77.107z"/>
</g>
</svg>
